<svg width="50" height="15" viewBox="0 0 50 15" fill="none" xmlns="http://www.w3.org/2000/svg">
<path d="M9.324 11H7.364L2.926 4.294V11H0.966V1.214H2.926L7.364 7.934V1.214H9.324V11ZM12.2549 2.32C11.9096 2.32 11.6203 2.21267 11.3869 1.998C11.1629 1.774 11.0509 1.49867 11.0509 1.172C11.0509 0.845333 11.1629 0.574666 11.3869 0.359999C11.6203 0.135999 11.9096 0.0239995 12.2549 0.0239995C12.6003 0.0239995 12.8849 0.135999 13.1089 0.359999C13.3423 0.574666 13.4589 0.845333 13.4589 1.172C13.4589 1.49867 13.3423 1.774 13.1089 1.998C12.8849 2.21267 12.6003 2.32 12.2549 2.32ZM13.2209 3.244V11H11.2609V3.244H13.2209ZM19.4554 3.132C20.3794 3.132 21.1261 3.426 21.6954 4.014C22.2647 4.59267 22.5494 5.40467 22.5494 6.45V11H20.5894V6.716C20.5894 6.1 20.4354 5.62867 20.1274 5.302C19.8194 4.966 19.3994 4.798 18.8674 4.798C18.3261 4.798 17.8967 4.966 17.5794 5.302C17.2714 5.62867 17.1174 6.1 17.1174 6.716V11H15.1574V3.244H17.1174V4.21C17.3787 3.874 17.7101 3.61267 18.1114 3.426C18.5221 3.23 18.9701 3.132 19.4554 3.132ZM23.9093 7.094C23.9093 6.31 24.0633 5.61467 24.3713 5.008C24.6886 4.40133 25.1179 3.93467 25.6593 3.608C26.2006 3.28133 26.8026 3.118 27.4653 3.118C27.9693 3.118 28.4499 3.23 28.9073 3.454C29.3646 3.66867 29.7286 3.958 29.9993 4.322V0.64H31.9873V11H29.9993V9.852C29.7566 10.2347 29.4159 10.5427 28.9773 10.776C28.5386 11.0093 28.0299 11.126 27.4513 11.126C26.7979 11.126 26.2006 10.958 25.6593 10.622C25.1179 10.286 24.6886 9.81467 24.3713 9.208C24.0633 8.592 23.9093 7.88733 23.9093 7.094ZM30.0133 7.122C30.0133 6.646 29.9199 6.24 29.7333 5.904C29.5466 5.55867 29.2946 5.29733 28.9773 5.12C28.6599 4.93333 28.3193 4.84 27.9553 4.84C27.5913 4.84 27.2553 4.92867 26.9473 5.106C26.6393 5.28333 26.3873 5.54467 26.1913 5.89C26.0046 6.226 25.9113 6.62733 25.9113 7.094C25.9113 7.56067 26.0046 7.97133 26.1913 8.326C26.3873 8.67133 26.6393 8.93733 26.9473 9.124C27.2646 9.31067 27.6006 9.404 27.9553 9.404C28.3193 9.404 28.6599 9.31533 28.9773 9.138C29.2946 8.95133 29.5466 8.69 29.7333 8.354C29.9199 8.00867 30.0133 7.598 30.0133 7.122ZM41.3215 3.244L36.5195 14.668H34.4335L36.1135 10.804L33.0055 3.244H35.2035L37.2055 8.662L39.2355 3.244H41.3215ZM45.8221 11.126C45.0754 11.126 44.4034 10.9627 43.8061 10.636C43.2088 10.3 42.7374 9.82867 42.3921 9.222C42.0561 8.61533 41.8881 7.91533 41.8881 7.122C41.8881 6.32867 42.0608 5.62867 42.4061 5.022C42.7608 4.41533 43.2414 3.94867 43.8481 3.622C44.4548 3.286 45.1314 3.118 45.8781 3.118C46.6248 3.118 47.3014 3.286 47.9081 3.622C48.5148 3.94867 48.9908 4.41533 49.3361 5.022C49.6908 5.62867 49.8681 6.32867 49.8681 7.122C49.8681 7.91533 49.6861 8.61533 49.3221 9.222C48.9674 9.82867 48.4821 10.3 47.8661 10.636C47.2594 10.9627 46.5781 11.126 45.8221 11.126ZM45.8221 9.418C46.1768 9.418 46.5081 9.334 46.8161 9.166C47.1334 8.98867 47.3854 8.72733 47.5721 8.382C47.7588 8.03667 47.8521 7.61667 47.8521 7.122C47.8521 6.38467 47.6561 5.82 47.2641 5.428C46.8814 5.02667 46.4101 4.826 45.8501 4.826C45.2901 4.826 44.8188 5.02667 44.4361 5.428C44.0628 5.82 43.8761 6.38467 43.8761 7.122C43.8761 7.85933 44.0581 8.42867 44.4221 8.83C44.7954 9.222 45.2621 9.418 45.8221 9.418Z" fill="white"/>
</svg>
