<svg width="141" height="43" viewBox="0 0 141 43" fill="none" xmlns="http://www.w3.org/2000/svg">
<path d="M24.64 32H19.04L6.36 12.84V32H0.76V4.04H6.36L19.04 23.24V4.04H24.64V32ZM33.0141 7.2C32.0274 7.2 31.2007 6.89333 30.5341 6.28C29.8941 5.64 29.5741 4.85333 29.5741 3.92C29.5741 2.98667 29.8941 2.21333 30.5341 1.6C31.2007 0.959998 32.0274 0.639998 33.0141 0.639998C34.0007 0.639998 34.8141 0.959998 35.4541 1.6C36.1207 2.21333 36.4541 2.98667 36.4541 3.92C36.4541 4.85333 36.1207 5.64 35.4541 6.28C34.8141 6.89333 34.0007 7.2 33.0141 7.2ZM35.7741 9.84V32H30.1741V9.84H35.7741ZM53.5869 9.52C56.2269 9.52 58.3602 10.36 59.9869 12.04C61.6135 13.6933 62.4269 16.0133 62.4269 19V32H56.8269V19.76C56.8269 18 56.3869 16.6533 55.5069 15.72C54.6269 14.76 53.4269 14.28 51.9069 14.28C50.3602 14.28 49.1335 14.76 48.2269 15.72C47.3469 16.6533 46.9069 18 46.9069 19.76V32H41.3069V9.84H46.9069V12.6C47.6535 11.64 48.6002 10.8933 49.7469 10.36C50.9202 9.8 52.2002 9.52 53.5869 9.52ZM66.3122 20.84C66.3122 18.6 66.7522 16.6133 67.6322 14.88C68.5389 13.1467 69.7655 11.8133 71.3122 10.88C72.8589 9.94667 74.5789 9.48 76.4722 9.48C77.9122 9.48 79.2855 9.8 80.5922 10.44C81.8989 11.0533 82.9389 11.88 83.7122 12.92V2.4H89.3922V32H83.7122V28.72C83.0189 29.8133 82.0455 30.6933 80.7922 31.36C79.5389 32.0267 78.0855 32.36 76.4322 32.36C74.5655 32.36 72.8589 31.88 71.3122 30.92C69.7655 29.96 68.5389 28.6133 67.6322 26.88C66.7522 25.12 66.3122 23.1067 66.3122 20.84ZM83.7522 20.92C83.7522 19.56 83.4855 18.4 82.9522 17.44C82.4189 16.4533 81.6989 15.7067 80.7922 15.2C79.8855 14.6667 78.9122 14.4 77.8722 14.4C76.8322 14.4 75.8722 14.6533 74.9922 15.16C74.1122 15.6667 73.3922 16.4133 72.8322 17.4C72.2989 18.36 72.0322 19.5067 72.0322 20.84C72.0322 22.1733 72.2989 23.3467 72.8322 24.36C73.3922 25.3467 74.1122 26.1067 74.9922 26.64C75.8989 27.1733 76.8589 27.44 77.8722 27.44C78.9122 27.44 79.8855 27.1867 80.7922 26.68C81.6989 26.1467 82.4189 25.4 82.9522 24.44C83.4855 23.4533 83.7522 22.28 83.7522 20.92ZM116.062 9.84L102.342 42.48H96.3816L101.182 31.44L92.3016 9.84H98.5816L104.302 25.32L110.102 9.84H116.062ZM128.92 32.36C126.787 32.36 124.867 31.8933 123.16 30.96C121.454 30 120.107 28.6533 119.12 26.92C118.16 25.1867 117.68 23.1867 117.68 20.92C117.68 18.6533 118.174 16.6533 119.16 14.92C120.174 13.1867 121.547 11.8533 123.28 10.92C125.014 9.96 126.947 9.48 129.08 9.48C131.214 9.48 133.147 9.96 134.88 10.92C136.614 11.8533 137.974 13.1867 138.96 14.92C139.974 16.6533 140.48 18.6533 140.48 20.92C140.48 23.1867 139.96 25.1867 138.92 26.92C137.907 28.6533 136.52 30 134.76 30.96C133.027 31.8933 131.08 32.36 128.92 32.36ZM128.92 27.48C129.934 27.48 130.88 27.24 131.76 26.76C132.667 26.2533 133.387 25.5067 133.92 24.52C134.454 23.5333 134.72 22.3333 134.72 20.92C134.72 18.8133 134.16 17.2 133.04 16.08C131.947 14.9333 130.6 14.36 129 14.36C127.4 14.36 126.054 14.9333 124.96 16.08C123.894 17.2 123.36 18.8133 123.36 20.92C123.36 23.0267 123.88 24.6533 124.92 25.8C125.987 26.92 127.32 27.48 128.92 27.48Z" fill="white"/>
</svg>
